<svg xmlns="http://www.w3.org/2000/svg" width="13" height="13">
    <g stroke-width="0" fill="silver">
        <polygon points="0,0 3,0 3,1 1,1 1,3 0,3"/>
        <polygon points="5,0 8,0 8,1 5,1"/>
        <polygon points="13,0 13,3 12,3 12,1 10,1 10,0"/>
        <polygon points="13,5 13,8 12,8 12,5"/>
        <polygon points="13,13 10,13 10,12 12,12 12,10 13,10"/>
        <polygon points="8,13 5,13 5,12 8,12"/>
        <polygon points="0,13 0,10 1,10 1,12 3,12 3,13"/>
        <polygon points="0,8 0,5 1,5 1,8"/>
    </g>
</svg>